<?xml version="1.0" encoding="UTF-8" standalone="no"?>
<svg width="200px" height="200px" viewBox="0 0 200 200" version="1.1" xmlns="http://www.w3.org/2000/svg" xmlns:xlink="http://www.w3.org/1999/xlink" xmlns:sketch="http://www.bohemiancoding.com/sketch/ns">
    <!-- Generator: Sketch 3.0.4 (8054) - http://www.bohemiancoding.com/sketch -->
    <title>facebook25</title>
    <desc>Created with Sketch.</desc>
    <defs></defs>
    <g id="Page-1" stroke="none" stroke-width="1" fill="none" fill-rule="evenodd" sketch:type="MSPage">
        <g id="facebook25" sketch:type="MSLayerGroup">
            <circle id="oval-background" fill="#1A5175" sketch:type="MSShapeGroup" cx="100" cy="100" r="100"></circle>
            <path d="M109.410143,78.6382143 L109.410143,67.8955714 C109.410143,66.2826429 109.484429,65.0337143 109.635786,64.1515714 C109.786214,63.2675714 110.127929,62.3984286 110.658143,61.5404286 C111.187429,60.6833571 112.045429,60.0909286 113.230286,59.7631429 C114.416071,59.4344286 115.992786,59.271 117.960429,59.271 L128.702143,59.271 L128.702143,37.7857143 L111.529143,37.7857143 C101.591571,37.7857143 94.4555,40.1433571 90.1181429,44.8586429 C85.7807857,49.5748571 83.6125714,56.5215 83.6125714,65.7013571 L83.6125714,78.6382143 L70.75,78.6382143 L70.75,100.124429 L83.6116429,100.124429 L83.6116429,162.463143 L109.410143,162.463143 L109.410143,100.124429 L126.583143,100.124429 L128.852571,78.6382143 L109.410143,78.6382143 L109.410143,78.6382143 Z" id="Shape" fill="#2474A8" sketch:type="MSShapeGroup"></path>
        </g>
    </g>
</svg>