<?xml version="1.0" encoding="UTF-8" standalone="no"?>
<svg width="200px" height="200px" viewBox="0 0 200 200" version="1.1" xmlns="http://www.w3.org/2000/svg" xmlns:xlink="http://www.w3.org/1999/xlink" xmlns:sketch="http://www.bohemiancoding.com/sketch/ns">
    <!-- Generator: Sketch 3.0.4 (8054) - http://www.bohemiancoding.com/sketch -->
    <title>linkedin10</title>
    <desc>Created with Sketch.</desc>
    <defs></defs>
    <g id="Page-1" stroke="none" stroke-width="1" fill="none" fill-rule="evenodd" sketch:type="MSPage">
        <g id="linkedin10" sketch:type="MSLayerGroup">
            <circle id="oval-background" fill="#1A5175" sketch:type="MSShapeGroup" cx="100" cy="100" r="100"></circle>
            <g id="Group" transform="translate(49.000000, 45.000000)" fill="#2474A8" sketch:type="MSShapeGroup">
                <rect id="Rectangle-path" x="1.66666667" y="32.5" width="22.405" height="67.2825"></rect>
                <path d="M97.5816667,38.6975 C92.8758333,33.56 86.6508333,30.9908333 78.9116667,30.9908333 C76.06,30.9908333 73.4683333,31.3416667 71.1366667,32.0433333 C68.8058333,32.745 66.8375,33.7291667 65.23,34.9966667 C63.6233333,36.2641667 62.3441667,37.4408333 61.3941667,38.5266667 C60.4908333,39.5583333 59.6083333,40.7591667 58.7458333,42.1183333 L58.7458333,32.5508333 L36.4083333,32.5508333 L36.4766667,35.81 C36.5225,37.9833333 36.545,44.6816667 36.545,55.9066667 C36.545,67.1325 36.5,81.7741667 36.4091667,99.8341667 L58.7458333,99.8341667 L58.7458333,62.2883333 C58.7458333,59.98 58.9941667,58.1475 59.4925,56.7883333 C60.4441667,54.4791667 61.8791667,52.545 63.8041667,50.9841667 C65.7283333,49.4216667 68.1158333,48.6408333 70.9675,48.6408333 C74.86,48.6408333 77.7233333,49.9875 79.5566667,52.6808333 C81.3891667,55.3733333 82.3058333,59.0966667 82.3058333,63.8491667 L82.3058333,99.8325 L104.643333,99.8325 L104.643333,61.2708333 C104.641667,51.3575 102.289167,43.8333333 97.5816667,38.6975 L97.5816667,38.6975 Z" id="Shape"></path>
                <path d="M12.9858333,0.165833333 C9.22916667,0.165833333 6.18583333,1.26416667 3.85416667,3.45916667 C1.5225,5.65416667 0.3575,8.42583333 0.3575,11.7758333 C0.3575,15.0791667 1.48916667,17.8408333 3.7525,20.0583333 C6.015,22.2758333 9.0025,23.385 12.7141667,23.385 L12.85,23.385 C16.6525,23.385 19.7191667,22.2766667 22.05,20.0583333 C24.3808333,17.8408333 25.5233333,15.08 25.4783333,11.7758333 C25.4333333,8.42583333 24.2783333,5.65416667 22.0158333,3.45916667 C19.7533333,1.26333333 16.7425,0.165833333 12.9858333,0.165833333 L12.9858333,0.165833333 Z" id="Shape"></path>
            </g>
        </g>
    </g>
</svg>