<?xml version="1.0" encoding="UTF-8" standalone="no"?>
<svg width="200px" height="200px" viewBox="0 0 200 200" version="1.1" xmlns="http://www.w3.org/2000/svg" xmlns:xlink="http://www.w3.org/1999/xlink" xmlns:sketch="http://www.bohemiancoding.com/sketch/ns">
    <!-- Generator: Sketch 3.0.4 (8054) - http://www.bohemiancoding.com/sketch -->
    <title>twitter16</title>
    <desc>Created with Sketch.</desc>
    <defs></defs>
    <g id="Page-1" stroke="none" stroke-width="1" fill="none" fill-rule="evenodd" sketch:type="MSPage">
        <g id="twitter16" sketch:type="MSLayerGroup">
            <circle id="oval-background" fill="#1A5175" sketch:type="MSShapeGroup" cx="100" cy="100" r="100"></circle>
            <path d="M153.0175,65.7755192 C158.809609,62.2877115 162.726875,57.36075 164.768281,50.9946346 C159.470781,54.1491538 153.816797,56.3078846 147.804297,57.4708269 C142.507812,51.8242885 135.999688,49 128.275859,49 C120.884141,49 114.582187,51.6153462 109.367969,56.8470577 C104.154766,62.0787692 101.548672,68.4030962 101.548672,75.8210577 C101.548672,77.8136538 101.769062,79.8623077 102.210859,81.966 C91.2878125,81.4125577 81.0411719,78.6585962 71.4699219,73.7041154 C61.8986719,68.7486154 53.7757031,62.1470577 47.1010156,53.8984231 C44.6736719,58.04975 43.46,62.5618846 43.46,67.4338077 C43.46,72.0285 44.5355469,76.2919423 46.6876562,80.2220962 C48.83875,84.15225 51.7353125,87.3353077 55.3763281,89.7712692 C51.073125,89.6051346 47.0461719,88.4697115 43.2954687,86.3660192 L43.2954687,86.6982885 C43.2954687,93.1755 45.3226563,98.8628077 49.3770313,103.763269 C53.4314062,108.663731 58.548125,111.748942 64.7261719,113.021962 C62.4095312,113.630442 60.0644531,113.935192 57.6929687,113.935192 C56.1482031,113.935192 54.4653125,113.796577 52.6453125,113.521385 C54.355625,118.890692 57.5,123.304981 62.0784375,126.765269 C66.656875,130.226577 71.8426563,132.010231 77.6347656,132.122346 C67.9264063,139.760462 56.86625,143.580538 44.4542969,143.580538 C42.0817969,143.580538 39.9307031,143.471481 38,143.249288 C50.4119531,151.275731 64.0924219,155.288442 79.0424219,155.288442 C88.5303906,155.288442 97.4394531,153.781 105.767578,150.764077 C114.09875,147.747154 121.214219,143.705904 127.117031,138.639308 C133.018828,133.57475 138.108125,127.747808 142.382891,121.1595 C146.657656,114.572212 149.842656,107.694442 151.939922,100.525173 C154.036172,93.3548846 155.084297,86.1733846 155.084297,78.9755769 C155.084297,77.4253269 155.056875,76.2634038 155.001016,75.4877692 C160.242656,71.6697308 164.711406,67.0465 168.407266,61.6221538 C163.277344,63.8369423 158.145391,65.2200385 153.0175,65.7755192 Z" id="Shape" fill="#2474A8" sketch:type="MSShapeGroup"></path>
        </g>
    </g>
</svg>