<?xml version="1.0" encoding="UTF-8" standalone="no"?>
<svg width="200px" height="200px" viewBox="0 0 200 200" version="1.1" xmlns="http://www.w3.org/2000/svg" xmlns:xlink="http://www.w3.org/1999/xlink" xmlns:sketch="http://www.bohemiancoding.com/sketch/ns">
    <!-- Generator: Sketch 3.0.4 (8054) - http://www.bohemiancoding.com/sketch -->
    <title>dribbble4</title>
    <desc>Created with Sketch.</desc>
    <defs></defs>
    <g id="Page-1" stroke="none" stroke-width="1" fill="none" fill-rule="evenodd" sketch:type="MSPage">
        <g id="dribbble4" sketch:type="MSLayerGroup">
            <circle id="oval-background" fill="#1A5175" sketch:type="MSShapeGroup" cx="100" cy="100" r="100"></circle>
            <path d="M154.252,68.663 C148.657,59.077 141.067,51.487 131.481,45.892 C121.893,40.297 111.426,37.5 100.073,37.5 C88.721,37.5 78.251,40.297 68.665,45.892 C59.078,51.486 51.488,59.076 45.893,68.663 C40.297,78.25 37.5,88.72 37.5,100.071 C37.5,111.423 40.298,121.891 45.892,131.479 C51.487,141.064 59.077,148.655 68.664,154.25 C78.251,159.845 88.72,162.642 100.072,162.642 C111.424,162.642 121.894,159.845 131.48,154.25 C141.066,148.656 148.656,141.065 154.251,131.479 C159.845,121.892 162.642,111.422 162.642,100.071 C162.642,88.719 159.845,78.249 154.252,68.663 L154.252,68.663 Z M100.072,46.625 C113.541,46.625 125.301,51.079 135.349,59.986 L134.331,61.411 C133.923,61.982 132.905,63.081 131.275,64.711 C129.646,66.34 127.867,67.889 125.939,69.355 C124.01,70.822 121.391,72.492 118.077,74.366 C114.763,76.24 111.233,77.884 107.485,79.296 C101.239,67.78 94.559,57.406 87.443,48.173 C91.735,47.141 95.944,46.625 100.072,46.625 L100.072,46.625 Z M58.196,66.91 C63.41,60.339 69.764,55.287 77.26,51.757 C83.995,60.719 90.621,70.985 97.139,82.554 C80.627,86.899 64.17,89.072 47.767,89.071 C49.506,80.87 52.982,73.482 58.196,66.91 L58.196,66.91 Z M50.21,119.341 C47.82,113.23 46.625,106.807 46.625,100.071 C46.625,99.31 46.653,98.74 46.707,98.36 C66.37,98.36 84.647,95.835 101.539,90.783 C103.277,94.15 104.717,97.165 105.857,99.827 C105.638,99.935 105.288,100.057 104.798,100.193 C104.308,100.329 103.955,100.423 103.737,100.478 L100.723,101.538 C98.658,102.298 95.955,103.601 92.616,105.448 C89.276,107.296 85.732,109.495 81.984,112.048 C78.236,114.602 74.366,117.983 70.374,122.193 C66.382,126.402 63.028,130.923 60.312,135.757 C55.967,130.923 52.6,125.45 50.21,119.341 L50.21,119.341 Z M100.072,153.518 C87.362,153.518 76.01,149.444 66.016,141.297 L67.238,142.193 C69.139,138.01 71.936,133.991 75.63,130.135 C79.324,126.279 82.881,123.168 86.303,120.805 C89.725,118.443 93.445,116.217 97.465,114.124 C101.484,112.033 104.226,110.702 105.693,110.133 C107.16,109.562 108.328,109.113 109.197,108.788 L109.36,108.706 L109.523,108.706 C114.845,122.665 118.648,136.19 120.929,149.28 C114.194,152.105 107.242,153.517 100.072,153.518 L100.072,153.518 Z M145.047,128.954 C141.027,135.173 136.002,140.32 129.975,144.393 C127.746,131.901 124.272,119.163 119.545,106.182 C130.354,104.497 141.461,105.285 152.867,108.543 C151.672,115.93 149.065,122.734 145.047,128.954 L145.047,128.954 Z M152.703,99.338 C152.16,99.23 151.481,99.107 150.666,98.972 C149.852,98.837 148.86,98.673 147.692,98.483 C146.525,98.293 145.22,98.117 143.781,97.954 C142.342,97.791 140.808,97.642 139.177,97.506 C137.548,97.37 135.81,97.262 133.964,97.18 C132.115,97.099 130.242,97.058 128.341,97.058 C126.441,97.058 124.444,97.113 122.354,97.221 C120.263,97.328 118.24,97.52 116.285,97.791 C116.121,97.519 115.918,97.071 115.674,96.446 C115.43,95.822 115.252,95.346 115.146,95.02 C114.113,92.739 112.918,90.159 111.559,87.281 C115.307,85.759 118.879,84.008 122.275,82.025 C125.669,80.042 128.383,78.278 130.421,76.73 C132.458,75.181 134.386,73.538 136.206,71.8 C138.025,70.062 139.206,68.854 139.75,68.175 C140.294,67.495 140.81,66.83 141.298,66.179 L141.38,66.097 C149.31,75.765 153.358,86.899 153.519,99.501 L152.703,99.338 L152.703,99.338 Z" id="Shape" fill="#2474A8" sketch:type="MSShapeGroup"></path>
        </g>
    </g>
</svg>